<svg xmlns="http://www.w3.org/2000/svg" xmlns:xlink="http://www.w3.org/1999/xlink" width="500" zoomAndPan="magnify" viewBox="40 40 295 295" height="500" preserveAspectRatio="xMidYMid meet" version="1.0"><defs><g/><clipPath id="83e9027c80"><path d="M 62.597656 62.597656 L 312.347656 62.597656 L 312.347656 312.347656 L 62.597656 312.347656 Z M 62.597656 62.597656 " clip-rule="nonzero"/></clipPath><clipPath id="b76fe95cca"><path d="M 187.496094 62.597656 C 118.515625 62.597656 62.597656 118.515625 62.597656 187.496094 C 62.597656 256.476562 118.515625 312.394531 187.496094 312.394531 C 256.476562 312.394531 312.394531 256.476562 312.394531 187.496094 C 312.394531 118.515625 256.476562 62.597656 187.496094 62.597656 Z M 187.496094 62.597656 " clip-rule="nonzero"/></clipPath><clipPath id="6d9e173ecb"><path d="M 106.714844 106.714844 L 267.964844 106.714844 L 267.964844 267.964844 L 106.714844 267.964844 Z M 106.714844 106.714844 " clip-rule="nonzero"/></clipPath><clipPath id="151e768845"><path d="M 187.496094 106.714844 C 142.882812 106.714844 106.714844 142.882812 106.714844 187.496094 C 106.714844 232.113281 142.882812 268.28125 187.496094 268.28125 C 232.113281 268.28125 268.28125 232.113281 268.28125 187.496094 C 268.28125 142.882812 232.113281 106.714844 187.496094 106.714844 Z M 187.496094 106.714844 " clip-rule="nonzero"/></clipPath><clipPath id="ddeb3f4527"><path d="M 119.03125 127.675781 L 256 127.675781 L 256 247.675781 L 119.03125 247.675781 Z M 119.03125 127.675781 " clip-rule="nonzero"/></clipPath><clipPath id="e191f6f499"><path d="M 200.316406 0.652344 L 226.335938 0.652344 L 226.335938 26.671875 L 200.316406 26.671875 Z M 200.316406 0.652344 " clip-rule="nonzero"/></clipPath><clipPath id="df4fb35d18"><path d="M 0.316406 0.652344 L 26 0.652344 L 26 26.671875 L 0.316406 26.671875 Z M 0.316406 0.652344 " clip-rule="nonzero"/></clipPath><clipPath id="ea7beffecc"><rect x="0" width="27" y="0" height="27"/></clipPath><clipPath id="72dfacd343"><path d="M 1 0.652344 L 27 0.652344 L 27 26.671875 L 1 26.671875 Z M 1 0.652344 " clip-rule="nonzero"/></clipPath><clipPath id="572122c2ee"><rect x="0" width="227" y="0" height="28"/></clipPath></defs><g clip-path="url(#83e9027c80)"><g clip-path="url(#b76fe95cca)"><path stroke-linecap="butt" transform="matrix(0.75, 0, 0, 0.75, 62.59842, 62.598416)" fill="none" stroke-linejoin="miter" d="M 166.530242 -0.00101285 C 74.556278 -0.00101285 -0.00101885 74.556284 -0.00101885 166.530248 C -0.00101885 258.504212 74.556278 333.061509 166.530242 333.061509 C 258.504206 333.061509 333.061503 258.504212 333.061503 166.530248 C 333.061503 74.556284 258.504206 -0.00101285 166.530242 -0.00101285 Z M 166.530242 -0.00101285 " stroke="#ffffff" stroke-width="16" stroke-opacity="1" stroke-miterlimit="4"/></g></g><g clip-path="url(#6d9e173ecb)"><g clip-path="url(#151e768845)"><path stroke-linecap="butt" transform="matrix(0.75, 0, 0, 0.75, 106.714149, 106.714145)" fill="none" stroke-linejoin="miter" d="M 107.709266 0.000931677 C 48.224887 0.000931677 0.000925677 48.224893 0.000925677 107.709272 C 0.000925677 167.198859 48.224887 215.422821 107.709266 215.422821 C 167.198853 215.422821 215.422815 167.198859 215.422815 107.709272 C 215.422815 48.224893 167.198853 0.000931677 107.709266 0.000931677 Z M 107.709266 0.000931677 " stroke="#ffffff" stroke-width="16" stroke-opacity="1" stroke-miterlimit="4"/></g></g><g clip-path="url(#ddeb3f4527)"><path fill="#ffffff" d="M 164.257812 189.605469 C 164.285156 192.746094 162.03125 195.042969 158.894531 195.070312 C 155.777344 195.09375 153.449219 192.808594 153.425781 189.695312 C 153.398438 186.664062 155.8125 184.15625 158.800781 184.105469 C 161.730469 184.058594 164.226562 186.574219 164.257812 189.605469 Z M 221.570312 189.769531 C 221.523438 192.765625 218.984375 195.148438 215.929688 195.070312 C 212.796875 194.992188 210.515625 192.632812 210.585938 189.539062 C 210.65625 186.515625 213.265625 183.980469 216.148438 184.128906 C 219.167969 184.289062 221.621094 186.839844 221.570312 189.769531 Z M 202.507812 208.566406 C 204.066406 210.34375 203.066406 211.824219 201.59375 213.152344 C 197.46875 216.863281 192.589844 218.519531 187.90625 218.574219 C 181.902344 218.441406 177.320312 216.71875 173.378906 213.277344 C 171.796875 211.894531 170.730469 210.304688 172.367188 208.472656 C 173.871094 206.789062 175.5 207.511719 177.0625 208.820312 C 183.511719 214.234375 191.261719 214.210938 197.835938 208.75 C 199.429688 207.429688 201 206.847656 202.507812 208.566406 Z M 243.25 199.085938 L 239.289062 199.085938 C 237.652344 199.085938 236.300781 200.347656 236.1875 201.976562 C 234.480469 226.46875 216.277344 241.089844 187.5 241.089844 C 158.71875 241.089844 140.519531 226.46875 138.808594 201.976562 C 138.695312 200.347656 137.34375 199.085938 135.710938 199.085938 L 131.75 199.085938 C 128.222656 199.085938 125.351562 195.769531 125.351562 191.691406 C 125.351562 187.613281 128.222656 184.296875 131.75 184.296875 L 135.707031 184.296875 C 137.339844 184.296875 138.695312 183.03125 138.804688 181.398438 C 140.523438 155.824219 159.285156 136.199219 183.214844 134.089844 C 189.894531 136.636719 194.953125 142.019531 197.503906 149.300781 C 200.164062 156.886719 195.144531 164.449219 187.460938 164.8125 C 183.5 165 180.03125 162.585938 178.859375 158.824219 C 177.554688 154.652344 179.757812 150.914062 184.078125 150.257812 C 186.105469 149.953125 187.679688 149.347656 187.441406 147.007812 C 187.195312 144.605469 185.355469 144.441406 183.421875 144.574219 C 176.210938 145.074219 171.246094 152.472656 173.183594 159.863281 C 176.070312 170.886719 189.832031 174.285156 198.46875 166.039062 C 204.0625 160.699219 205.203125 154.191406 202.800781 147.03125 C 201.027344 141.75 197.761719 137.632812 193.5 134.273438 C 216.601562 137.152344 234.515625 156.441406 236.191406 181.398438 C 236.300781 183.03125 237.65625 184.296875 239.289062 184.296875 L 243.25 184.296875 C 246.773438 184.296875 249.644531 187.613281 249.644531 191.691406 C 249.644531 195.769531 246.773438 199.085938 243.25 199.085938 Z M 243.25 178.082031 L 242.128906 178.082031 C 238.832031 149.144531 215.8125 127.675781 187.5 127.675781 C 159.183594 127.675781 136.164062 149.144531 132.867188 178.082031 L 131.75 178.082031 C 124.796875 178.082031 119.140625 184.1875 119.140625 191.691406 C 119.140625 199.195312 124.796875 205.300781 131.75 205.300781 L 132.886719 205.300781 C 136.039062 231.292969 156.699219 247.304688 187.5 247.304688 C 218.296875 247.304688 238.957031 231.292969 242.109375 205.300781 L 243.25 205.300781 C 250.203125 205.300781 255.859375 199.195312 255.859375 191.691406 C 255.859375 184.1875 250.203125 178.082031 243.25 178.082031 " fill-opacity="1" fill-rule="nonzero"/></g><g transform="matrix(1, 0, 0, 1, 74, 174)"><g clip-path="url(#572122c2ee)"><g clip-path="url(#e191f6f499)"><g transform="matrix(1, 0, 0, 1, 200, 0)"><g clip-path="url(#ea7beffecc)"><g clip-path="url(#df4fb35d18)"><path fill="#ffffff" d="M 8.339844 0.652344 C 9.054688 0.652344 9.75 0.757812 10.414062 0.933594 C 10.390625 0.992188 10.375 1.042969 10.359375 1.101562 C 9.210938 5.601562 5.363281 8.265625 0.617188 10.714844 C 0.441406 10.058594 0.339844 9.371094 0.339844 8.65625 C 0.339844 4.25 3.929688 0.652344 8.339844 0.652344 Z M 12.820312 2.035156 C 13.414062 2.433594 13.941406 2.917969 14.402344 3.453125 C 14.359375 3.542969 14.328125 3.640625 14.300781 3.734375 C 12.980469 8.902344 8.539062 11.9375 3.132812 14.722656 C 2.59375 14.253906 2.109375 13.71875 1.707031 13.125 C 6.589844 10.605469 11.289062 7.515625 12.820312 2.035156 Z M 16.070312 6.632812 C 16.242188 7.28125 16.34375 7.957031 16.34375 8.65625 C 16.34375 10.28125 15.851562 11.789062 15.019531 13.050781 L 15.367188 13.417969 L 20.628906 18.949219 L 20.761719 19.089844 C 21.210938 18.90625 21.703125 18.800781 22.214844 18.800781 C 24.285156 18.800781 25.980469 20.496094 25.980469 22.5625 C 25.980469 24.632812 24.285156 26.339844 22.214844 26.339844 C 20.144531 26.339844 18.441406 24.632812 18.441406 22.5625 C 18.441406 22.1875 18.511719 21.828125 18.617188 21.484375 L 18.304688 21.15625 L 13.050781 15.632812 L 12.757812 15.324219 C 11.488281 16.167969 9.96875 16.664062 8.339844 16.664062 C 7.464844 16.664062 6.628906 16.515625 5.839844 16.257812 C 10.15625 13.902344 14.121094 11.042969 16.070312 6.632812 Z M 22.214844 20.929688 C 21.296875 20.929688 20.574219 21.648438 20.574219 22.5625 C 20.574219 23.480469 21.296875 24.203125 22.214844 24.203125 C 23.132812 24.203125 23.847656 23.480469 23.847656 22.5625 C 23.847656 21.648438 23.132812 20.929688 22.214844 20.929688 " fill-opacity="1" fill-rule="nonzero"/></g></g></g></g><g clip-path="url(#72dfacd343)"><path fill="#ffffff" d="M 18.652344 0.652344 C 17.933594 0.652344 17.242188 0.757812 16.578125 0.933594 C 16.601562 0.992188 16.617188 1.042969 16.632812 1.101562 C 17.78125 5.601562 21.628906 8.265625 26.375 10.714844 C 26.550781 10.058594 26.648438 9.371094 26.648438 8.65625 C 26.648438 4.25 23.0625 0.652344 18.652344 0.652344 Z M 14.171875 2.035156 C 13.578125 2.433594 13.050781 2.917969 12.589844 3.453125 C 12.632812 3.542969 12.664062 3.640625 12.6875 3.734375 C 14.011719 8.902344 18.453125 11.9375 23.859375 14.722656 C 24.398438 14.253906 24.882812 13.71875 25.285156 13.125 C 20.402344 10.605469 15.703125 7.515625 14.171875 2.035156 Z M 10.921875 6.632812 C 10.75 7.28125 10.648438 7.957031 10.648438 8.65625 C 10.648438 10.28125 11.140625 11.789062 11.972656 13.050781 L 11.625 13.417969 L 6.363281 18.949219 L 6.230469 19.089844 C 5.78125 18.90625 5.289062 18.800781 4.777344 18.800781 C 2.707031 18.800781 1.011719 20.496094 1.011719 22.5625 C 1.011719 24.632812 2.707031 26.339844 4.777344 26.339844 C 6.84375 26.339844 8.550781 24.632812 8.550781 22.5625 C 8.550781 22.1875 8.480469 21.828125 8.375 21.484375 L 8.683594 21.15625 L 13.941406 15.632812 L 14.230469 15.324219 C 15.503906 16.167969 17.023438 16.664062 18.652344 16.664062 C 19.527344 16.664062 20.363281 16.515625 21.152344 16.257812 C 16.835938 13.902344 12.871094 11.042969 10.921875 6.632812 Z M 4.777344 20.929688 C 5.695312 20.929688 6.414062 21.648438 6.414062 22.5625 C 6.414062 23.480469 5.695312 24.203125 4.777344 24.203125 C 3.859375 24.203125 3.144531 23.480469 3.144531 22.5625 C 3.144531 21.648438 3.859375 20.929688 4.777344 20.929688 " fill-opacity="1" fill-rule="nonzero"/></g></g></g><g fill="#ffffff" fill-opacity="1"><g transform="translate(102.891993, 146.315724)"><g><path d="M -6.875 -25.859375 L -13.078125 -17.25 L -5.171875 -4.703125 L -1.984375 -9.125 L -7.34375 -17.5 L -6.40625 -18.8125 L 1.109375 -13.40625 L 4.296875 -17.828125 Z M -2.890625 -4.890625 L 5.296875 1.015625 L 18.984375 -17.984375 L 15.3125 -20.625 L 4.9375 -6.21875 L 0.421875 -9.484375 Z M 1.953125 -30.25 L -2.296875 -33.3125 L -5.609375 -28.703125 L 8.59375 -18.46875 L 11.90625 -23.078125 L 5.625 -27.609375 L 7.65625 -30.4375 L 3.984375 -33.078125 Z M 1.953125 -30.25 "/></g></g></g><g fill="#ffffff" fill-opacity="1"><g transform="translate(131.695893, 112.417687)"><g><path d="M -2.046875 -11.09375 C -1.878906 -10.757812 -1.707031 -10.460938 -1.53125 -10.203125 C -1.351562 -9.941406 -1.175781 -9.734375 -1 -9.578125 C -0.59375 -9.171875 -0.207031 -8.929688 0.15625 -8.859375 C 0.5 -8.734375 0.882812 -8.71875 1.3125 -8.8125 C 1.5 -8.84375 1.6875 -8.894531 1.875 -8.96875 C 2.070312 -9.039062 2.265625 -9.125 2.453125 -9.21875 L 17.421875 -16.890625 C 17.617188 -16.992188 17.800781 -17.097656 17.96875 -17.203125 C 18.132812 -17.316406 18.300781 -17.445312 18.46875 -17.59375 C 18.726562 -17.820312 18.929688 -18.140625 19.078125 -18.546875 C 19.179688 -18.859375 19.195312 -19.300781 19.125 -19.875 C 19.0625 -20.394531 18.863281 -20.976562 18.53125 -21.625 C 18.207031 -22.25 17.84375 -22.765625 17.4375 -23.171875 C 17.050781 -23.515625 16.691406 -23.75 16.359375 -23.875 C 15.941406 -23.957031 15.5625 -23.972656 15.21875 -23.921875 C 15.007812 -23.867188 14.8125 -23.8125 14.625 -23.75 C 14.4375 -23.6875 14.242188 -23.601562 14.046875 -23.5 L -0.921875 -15.828125 C -1.109375 -15.734375 -1.285156 -15.625 -1.453125 -15.5 C -1.628906 -15.382812 -1.789062 -15.265625 -1.9375 -15.140625 C -2.25 -14.835938 -2.457031 -14.519531 -2.5625 -14.1875 C -2.707031 -13.8125 -2.75 -13.375 -2.6875 -12.875 C -2.644531 -12.601562 -2.566406 -12.316406 -2.453125 -12.015625 C -2.347656 -11.722656 -2.210938 -11.414062 -2.046875 -11.09375 Z M 15.484375 -8.421875 L 24.359375 -12.96875 L 22.3125 -16.984375 L -0.46875 -5.3125 L 1.578125 -1.296875 L 10.4375 -5.84375 L 12.9375 -0.96875 L 17.984375 -3.546875 Z M 1.34375 -23.609375 L -6.96875 -19.34375 L -4.90625 -15.3125 L 16.765625 -26.421875 L 14.703125 -30.453125 L 6.390625 -26.1875 L 5.6875 -27.578125 L 0.640625 -25 Z M 13.953125 -19.28125 C 14.179688 -18.8125 14.082031 -18.472656 13.65625 -18.265625 L 3.515625 -13.0625 C 3.085938 -12.84375 2.757812 -12.96875 2.53125 -13.4375 C 2.289062 -13.894531 2.382812 -14.234375 2.8125 -14.453125 L 12.953125 -19.65625 C 13.378906 -19.863281 13.710938 -19.738281 13.953125 -19.28125 Z M 13.953125 -19.28125 "/></g></g></g><g fill="#ffffff" fill-opacity="1"><g transform="translate(172.701892, 95.373649)"><g><path d="M 26.96875 -4.609375 L 26.96875 -9.4375 L 8.28125 -9.4375 L 8.28125 -15.5625 L 26.96875 -15.5625 L 26.96875 -20.390625 L 2.609375 -20.390625 L 2.609375 -4.609375 L 11.921875 -4.609375 L 11.921875 0.375 L 2 0.375 L 2 4.890625 L 27.59375 4.890625 L 27.59375 0.375 L 17.59375 0.375 L 17.59375 -4.609375 Z M 26.96875 -4.609375 "/></g></g></g><g fill="#ffffff" fill-opacity="1"><g transform="translate(217.124302, 98.930835)"><g><path d="M 10.03125 -3.5 L 23.296875 3.296875 C 24.859375 4.097656 26.226562 4.238281 27.40625 3.71875 C 28.582031 3.164062 29.675781 1.90625 30.6875 -0.0625 C 31.695312 -2.039062 32.078125 -3.664062 31.828125 -4.9375 C 31.566406 -6.1875 30.65625 -7.210938 29.09375 -8.015625 L 15.828125 -14.8125 C 14.242188 -15.625 12.867188 -15.765625 11.703125 -15.234375 C 10.566406 -14.722656 9.484375 -13.460938 8.453125 -11.453125 C 7.421875 -9.441406 7.03125 -7.816406 7.28125 -6.578125 C 7.53125 -5.335938 8.445312 -4.3125 10.03125 -3.5 Z M 15.890625 7.640625 L 24.765625 12.1875 L 26.8125 8.171875 L 4.03125 -3.5 L 1.984375 0.515625 L 10.84375 5.0625 L 8.34375 9.9375 L 13.390625 12.515625 Z M 13.5 -8.875 C 13.84375 -9.539062 14.222656 -9.894531 14.640625 -9.9375 C 15.023438 -10 15.445312 -9.914062 15.90625 -9.6875 L 24.890625 -5.078125 C 25.304688 -4.867188 25.628906 -4.570312 25.859375 -4.1875 C 26.035156 -3.800781 25.960938 -3.289062 25.640625 -2.65625 C 25.316406 -2.03125 24.941406 -1.671875 24.515625 -1.578125 C 24.066406 -1.523438 23.632812 -1.601562 23.21875 -1.8125 L 14.234375 -6.421875 C 13.773438 -6.648438 13.460938 -6.953125 13.296875 -7.328125 C 13.085938 -7.691406 13.15625 -8.207031 13.5 -8.875 Z M 13.5 -8.875 "/></g></g></g><g fill="#ffffff" fill-opacity="1"><g transform="translate(254.970281, 122.306812)"><g><path d="M 26.890625 1.921875 L 17.765625 -10.75 L -3 4.203125 L 6.125 16.875 Z M 17.28125 -3.71875 L 20.046875 0.125 L 6.609375 9.8125 L 3.84375 5.96875 Z M 11.6875 24.59375 L 32.96875 9.265625 L 29.65625 4.65625 L 8.375 19.984375 Z M 11.6875 24.59375 "/></g></g></g><g fill="#ffffff" fill-opacity="1"><g transform="translate(106.769859, 258.562251)"><g><path d="M 11.546875 -11.34375 L 0.8125 1.109375 C 0.320312 1.679688 0 2.265625 -0.15625 2.859375 C -0.332031 3.453125 -0.378906 4.046875 -0.296875 4.640625 C -0.210938 5.203125 -0.0078125 5.757812 0.3125 6.3125 C 0.488281 6.5625 0.675781 6.816406 0.875 7.078125 C 1.082031 7.335938 1.3125 7.578125 1.5625 7.796875 L 6.171875 11.765625 C 6.441406 11.992188 6.71875 12.1875 7 12.34375 C 7.28125 12.507812 7.5625 12.660156 7.84375 12.796875 C 8.125 12.898438 8.410156 12.984375 8.703125 13.046875 C 9.003906 13.109375 9.296875 13.144531 9.578125 13.15625 C 10.171875 13.132812 10.753906 13 11.328125 12.75 C 11.910156 12.46875 12.429688 12.054688 12.890625 11.515625 L 23.625 -0.9375 C 24.09375 -1.488281 24.425781 -2.066406 24.625 -2.671875 C 24.78125 -3.273438 24.820312 -3.867188 24.75 -4.453125 C 24.707031 -4.742188 24.628906 -5.023438 24.515625 -5.296875 C 24.410156 -5.578125 24.285156 -5.851562 24.140625 -6.125 C 23.972656 -6.394531 23.785156 -6.65625 23.578125 -6.90625 C 23.378906 -7.15625 23.144531 -7.394531 22.875 -7.625 L 18.265625 -11.59375 C 18.015625 -11.8125 17.75 -12.003906 17.46875 -12.171875 C 17.1875 -12.347656 16.898438 -12.492188 16.609375 -12.609375 C 16.015625 -12.847656 15.4375 -12.96875 14.875 -12.96875 C 14.269531 -12.957031 13.691406 -12.820312 13.140625 -12.5625 C 12.566406 -12.3125 12.035156 -11.90625 11.546875 -11.34375 Z M 26.71875 8.34375 L 33.390625 0.609375 L 29.09375 -3.09375 L 11.984375 16.765625 L 16.28125 20.46875 L 23.78125 11.765625 L 26.421875 14.046875 L 29.359375 10.625 Z M 6.8125 6.359375 C 6.15625 5.796875 5.789062 5.242188 5.71875 4.703125 C 5.613281 4.179688 5.84375 3.597656 6.40625 2.953125 L 14.203125 -6.109375 C 14.742188 -6.734375 15.285156 -7.039062 15.828125 -7.03125 C 16.367188 -7.03125 16.96875 -6.75 17.625 -6.1875 C 18.238281 -5.65625 18.597656 -5.109375 18.703125 -4.546875 C 18.785156 -4.003906 18.5625 -3.425781 18.03125 -2.8125 L 10.234375 6.25 C 9.691406 6.882812 9.144531 7.195312 8.59375 7.1875 C 8.019531 7.164062 7.425781 6.890625 6.8125 6.359375 Z M 6.8125 6.359375 "/></g></g></g><g fill="#ffffff" fill-opacity="1"><g transform="translate(147.017473, 287.139143)"><g><path d="M 21.515625 -15.921875 L 6.671875 -19.671875 L 5.5 -14.984375 L 14.40625 -12.734375 L 7.34375 6.890625 L 12.84375 8.28125 Z M 27.625 -4.484375 L 30.125 -14.390625 L 24.625 -15.765625 L 18.203125 9.640625 L 23.703125 11.015625 L 26.53125 -0.125 L 29.90625 0.734375 L 31 -3.625 Z M 27.625 -4.484375 "/></g></g></g><g fill="#ffffff" fill-opacity="1"><g transform="translate(195.862869, 294.795963)"><g><path d="M 0.90625 -6.1875 L 3.296875 4.265625 L 29.28125 -1.65625 L 26.890625 -12.109375 Z M 26.5 -13.796875 L 23.453125 -27.21875 L 18.375 -26.0625 L 19.390625 -21.5625 L 17.3125 -21.09375 L 16.296875 -25.59375 L 11.234375 -24.4375 L 14.28125 -11.015625 L 19.34375 -12.171875 L 18.3125 -16.6875 L 20.390625 -17.15625 L 21.421875 -12.640625 Z M 10.125 -23.546875 L -4.0625 -20.3125 L -3.046875 -15.90625 L -1.421875 -16.28125 L -0.953125 -7.546875 L 3.59375 -8.578125 L 3.53125 -17.40625 L 4.84375 -17.703125 L 6.75 -9.296875 L 11.609375 -10.40625 L 9.703125 -18.8125 L 11.140625 -19.140625 Z M 7.34375 -3.5 L 22.265625 -6.90625 L 22.84375 -4.34375 L 7.921875 -0.9375 Z M 7.34375 -3.5 "/></g></g></g><g fill="#ffffff" fill-opacity="1"><g transform="translate(244.319974, 278.821107)"><g><path d="M -2.03125 -5.90625 L 4.890625 2.265625 L 25.203125 -14.96875 L 18.28125 -23.140625 Z M 17.15625 -24.46875 L 8.25 -34.96875 L 4.28125 -31.59375 L 7.265625 -28.078125 L 5.640625 -26.703125 L 2.65625 -30.21875 L -1.3125 -26.859375 L 7.59375 -16.359375 L 11.5625 -19.71875 L 8.5625 -23.265625 L 10.1875 -24.640625 L 13.1875 -21.09375 Z M -1.875 -25.546875 L -12.96875 -16.140625 L -10.046875 -12.703125 L -8.765625 -13.78125 L -4.3125 -6.25 L -0.75 -9.265625 L -4.890625 -17.078125 L -3.875 -17.9375 L 1.703125 -11.359375 L 5.515625 -14.59375 L -0.0625 -21.171875 L 1.046875 -22.109375 Z M 4.890625 -6.5 L 16.5625 -16.390625 L 18.265625 -14.390625 L 6.59375 -4.5 Z M 4.890625 -6.5 "/></g></g></g></svg>